<mxfile host="app.diagrams.net" modified="2021-08-13T03:01:28.816Z" agent="5.0 (X11; Linux x86_64) AppleWebKit/537.36 (KHTML, like Gecko) Chrome/92.0.4515.131 Safari/537.36" etag="roazHOUHPhvx-iFa4a-l" version="14.9.6" type="github">
  <diagram name="Page-1" id="e56a1550-8fbb-45ad-956c-1786394a9013">
    <mxGraphModel dx="2424" dy="2022" grid="1" gridSize="10" guides="1" tooltips="1" connect="1" arrows="1" fold="1" page="1" pageScale="1" pageWidth="1100" pageHeight="850" background="none" math="0" shadow="0">
      <root>
        <mxCell id="0" />
        <mxCell id="1" parent="0" />
        <mxCell id="mERQqLUmNKsXxVRj9tT_-44" value="Properties" style="shape=table;startSize=30;container=1;collapsible=1;childLayout=tableLayout;fixedRows=1;rowLines=0;fontStyle=1;align=center;resizeLast=1;" vertex="1" parent="1">
          <mxGeometry x="110" y="-450" width="200" height="580" as="geometry">
            <mxRectangle x="150" y="80" width="60" height="30" as="alternateBounds" />
          </mxGeometry>
        </mxCell>
        <mxCell id="mERQqLUmNKsXxVRj9tT_-45" value="" style="shape=partialRectangle;collapsible=0;dropTarget=0;pointerEvents=0;fillColor=none;top=0;left=0;bottom=1;right=0;points=[[0,0.5],[1,0.5]];portConstraint=eastwest;" vertex="1" parent="mERQqLUmNKsXxVRj9tT_-44">
          <mxGeometry y="30" width="200" height="30" as="geometry" />
        </mxCell>
        <mxCell id="mERQqLUmNKsXxVRj9tT_-46" value="PK" style="shape=partialRectangle;connectable=0;fillColor=none;top=0;left=0;bottom=0;right=0;fontStyle=1;overflow=hidden;" vertex="1" parent="mERQqLUmNKsXxVRj9tT_-45">
          <mxGeometry width="30" height="30" as="geometry" />
        </mxCell>
        <mxCell id="mERQqLUmNKsXxVRj9tT_-47" value="id" style="shape=partialRectangle;connectable=0;fillColor=none;top=0;left=0;bottom=0;right=0;align=left;spacingLeft=6;fontStyle=5;overflow=hidden;" vertex="1" parent="mERQqLUmNKsXxVRj9tT_-45">
          <mxGeometry x="30" width="170" height="30" as="geometry" />
        </mxCell>
        <mxCell id="mERQqLUmNKsXxVRj9tT_-48" value="" style="shape=partialRectangle;collapsible=0;dropTarget=0;pointerEvents=0;fillColor=none;top=0;left=0;bottom=0;right=0;points=[[0,0.5],[1,0.5]];portConstraint=eastwest;" vertex="1" parent="mERQqLUmNKsXxVRj9tT_-44">
          <mxGeometry y="60" width="200" height="30" as="geometry" />
        </mxCell>
        <mxCell id="mERQqLUmNKsXxVRj9tT_-49" value="" style="shape=partialRectangle;connectable=0;fillColor=none;top=0;left=0;bottom=0;right=0;editable=1;overflow=hidden;" vertex="1" parent="mERQqLUmNKsXxVRj9tT_-48">
          <mxGeometry width="30" height="30" as="geometry" />
        </mxCell>
        <mxCell id="mERQqLUmNKsXxVRj9tT_-50" value="title" style="shape=partialRectangle;connectable=0;fillColor=none;top=0;left=0;bottom=0;right=0;align=left;spacingLeft=6;overflow=hidden;" vertex="1" parent="mERQqLUmNKsXxVRj9tT_-48">
          <mxGeometry x="30" width="170" height="30" as="geometry" />
        </mxCell>
        <mxCell id="mERQqLUmNKsXxVRj9tT_-51" value="" style="shape=partialRectangle;collapsible=0;dropTarget=0;pointerEvents=0;fillColor=none;top=0;left=0;bottom=0;right=0;points=[[0,0.5],[1,0.5]];portConstraint=eastwest;" vertex="1" parent="mERQqLUmNKsXxVRj9tT_-44">
          <mxGeometry y="90" width="200" height="30" as="geometry" />
        </mxCell>
        <mxCell id="mERQqLUmNKsXxVRj9tT_-52" value="" style="shape=partialRectangle;connectable=0;fillColor=none;top=0;left=0;bottom=0;right=0;editable=1;overflow=hidden;" vertex="1" parent="mERQqLUmNKsXxVRj9tT_-51">
          <mxGeometry width="30" height="30" as="geometry" />
        </mxCell>
        <mxCell id="mERQqLUmNKsXxVRj9tT_-53" value="slug" style="shape=partialRectangle;connectable=0;fillColor=none;top=0;left=0;bottom=0;right=0;align=left;spacingLeft=6;overflow=hidden;" vertex="1" parent="mERQqLUmNKsXxVRj9tT_-51">
          <mxGeometry x="30" width="170" height="30" as="geometry" />
        </mxCell>
        <mxCell id="mERQqLUmNKsXxVRj9tT_-54" value="" style="shape=partialRectangle;collapsible=0;dropTarget=0;pointerEvents=0;fillColor=none;top=0;left=0;bottom=0;right=0;points=[[0,0.5],[1,0.5]];portConstraint=eastwest;" vertex="1" parent="mERQqLUmNKsXxVRj9tT_-44">
          <mxGeometry y="120" width="200" height="30" as="geometry" />
        </mxCell>
        <mxCell id="mERQqLUmNKsXxVRj9tT_-55" value="" style="shape=partialRectangle;connectable=0;fillColor=none;top=0;left=0;bottom=0;right=0;editable=1;overflow=hidden;" vertex="1" parent="mERQqLUmNKsXxVRj9tT_-54">
          <mxGeometry width="30" height="30" as="geometry" />
        </mxCell>
        <mxCell id="mERQqLUmNKsXxVRj9tT_-56" value="description" style="shape=partialRectangle;connectable=0;fillColor=none;top=0;left=0;bottom=0;right=0;align=left;spacingLeft=6;overflow=hidden;" vertex="1" parent="mERQqLUmNKsXxVRj9tT_-54">
          <mxGeometry x="30" width="170" height="30" as="geometry" />
        </mxCell>
        <mxCell id="mERQqLUmNKsXxVRj9tT_-75" value="" style="shape=partialRectangle;collapsible=0;dropTarget=0;pointerEvents=0;fillColor=none;top=0;left=0;bottom=0;right=0;points=[[0,0.5],[1,0.5]];portConstraint=eastwest;" vertex="1" parent="mERQqLUmNKsXxVRj9tT_-44">
          <mxGeometry y="150" width="200" height="30" as="geometry" />
        </mxCell>
        <mxCell id="mERQqLUmNKsXxVRj9tT_-76" value="" style="shape=partialRectangle;connectable=0;fillColor=none;top=0;left=0;bottom=0;right=0;editable=1;overflow=hidden;" vertex="1" parent="mERQqLUmNKsXxVRj9tT_-75">
          <mxGeometry width="30" height="30" as="geometry" />
        </mxCell>
        <mxCell id="mERQqLUmNKsXxVRj9tT_-77" value="views" style="shape=partialRectangle;connectable=0;fillColor=none;top=0;left=0;bottom=0;right=0;align=left;spacingLeft=6;overflow=hidden;" vertex="1" parent="mERQqLUmNKsXxVRj9tT_-75">
          <mxGeometry x="30" width="170" height="30" as="geometry" />
        </mxCell>
        <mxCell id="mERQqLUmNKsXxVRj9tT_-78" value="" style="shape=partialRectangle;collapsible=0;dropTarget=0;pointerEvents=0;fillColor=none;top=0;left=0;bottom=0;right=0;points=[[0,0.5],[1,0.5]];portConstraint=eastwest;" vertex="1" parent="mERQqLUmNKsXxVRj9tT_-44">
          <mxGeometry y="180" width="200" height="30" as="geometry" />
        </mxCell>
        <mxCell id="mERQqLUmNKsXxVRj9tT_-79" value="" style="shape=partialRectangle;connectable=0;fillColor=none;top=0;left=0;bottom=0;right=0;editable=1;overflow=hidden;" vertex="1" parent="mERQqLUmNKsXxVRj9tT_-78">
          <mxGeometry width="30" height="30" as="geometry" />
        </mxCell>
        <mxCell id="mERQqLUmNKsXxVRj9tT_-80" value="created_at" style="shape=partialRectangle;connectable=0;fillColor=none;top=0;left=0;bottom=0;right=0;align=left;spacingLeft=6;overflow=hidden;" vertex="1" parent="mERQqLUmNKsXxVRj9tT_-78">
          <mxGeometry x="30" width="170" height="30" as="geometry" />
        </mxCell>
        <mxCell id="mERQqLUmNKsXxVRj9tT_-81" value="" style="shape=partialRectangle;collapsible=0;dropTarget=0;pointerEvents=0;fillColor=none;top=0;left=0;bottom=0;right=0;points=[[0,0.5],[1,0.5]];portConstraint=eastwest;" vertex="1" parent="mERQqLUmNKsXxVRj9tT_-44">
          <mxGeometry y="210" width="200" height="30" as="geometry" />
        </mxCell>
        <mxCell id="mERQqLUmNKsXxVRj9tT_-82" value="" style="shape=partialRectangle;connectable=0;fillColor=none;top=0;left=0;bottom=0;right=0;editable=1;overflow=hidden;" vertex="1" parent="mERQqLUmNKsXxVRj9tT_-81">
          <mxGeometry width="30" height="30" as="geometry" />
        </mxCell>
        <mxCell id="mERQqLUmNKsXxVRj9tT_-83" value="updated_at" style="shape=partialRectangle;connectable=0;fillColor=none;top=0;left=0;bottom=0;right=0;align=left;spacingLeft=6;overflow=hidden;" vertex="1" parent="mERQqLUmNKsXxVRj9tT_-81">
          <mxGeometry x="30" width="170" height="30" as="geometry" />
        </mxCell>
        <mxCell id="mERQqLUmNKsXxVRj9tT_-84" value="" style="shape=partialRectangle;collapsible=0;dropTarget=0;pointerEvents=0;fillColor=none;top=0;left=0;bottom=0;right=0;points=[[0,0.5],[1,0.5]];portConstraint=eastwest;" vertex="1" parent="mERQqLUmNKsXxVRj9tT_-44">
          <mxGeometry y="240" width="200" height="30" as="geometry" />
        </mxCell>
        <mxCell id="mERQqLUmNKsXxVRj9tT_-85" value="" style="shape=partialRectangle;connectable=0;fillColor=none;top=0;left=0;bottom=0;right=0;editable=1;overflow=hidden;" vertex="1" parent="mERQqLUmNKsXxVRj9tT_-84">
          <mxGeometry width="30" height="30" as="geometry" />
        </mxCell>
        <mxCell id="mERQqLUmNKsXxVRj9tT_-86" value="deleted_at" style="shape=partialRectangle;connectable=0;fillColor=none;top=0;left=0;bottom=0;right=0;align=left;spacingLeft=6;overflow=hidden;" vertex="1" parent="mERQqLUmNKsXxVRj9tT_-84">
          <mxGeometry x="30" width="170" height="30" as="geometry" />
        </mxCell>
        <mxCell id="mERQqLUmNKsXxVRj9tT_-93" value="" style="shape=partialRectangle;collapsible=0;dropTarget=0;pointerEvents=0;fillColor=none;top=0;left=0;bottom=0;right=0;points=[[0,0.5],[1,0.5]];portConstraint=eastwest;" vertex="1" parent="mERQqLUmNKsXxVRj9tT_-44">
          <mxGeometry y="270" width="200" height="30" as="geometry" />
        </mxCell>
        <mxCell id="mERQqLUmNKsXxVRj9tT_-94" value="" style="shape=partialRectangle;connectable=0;fillColor=none;top=0;left=0;bottom=0;right=0;editable=1;overflow=hidden;" vertex="1" parent="mERQqLUmNKsXxVRj9tT_-93">
          <mxGeometry width="30" height="30" as="geometry" />
        </mxCell>
        <mxCell id="mERQqLUmNKsXxVRj9tT_-95" value="created_by" style="shape=partialRectangle;connectable=0;fillColor=none;top=0;left=0;bottom=0;right=0;align=left;spacingLeft=6;overflow=hidden;" vertex="1" parent="mERQqLUmNKsXxVRj9tT_-93">
          <mxGeometry x="30" width="170" height="30" as="geometry" />
        </mxCell>
        <mxCell id="mERQqLUmNKsXxVRj9tT_-90" value="" style="shape=partialRectangle;collapsible=0;dropTarget=0;pointerEvents=0;fillColor=none;top=0;left=0;bottom=0;right=0;points=[[0,0.5],[1,0.5]];portConstraint=eastwest;" vertex="1" parent="mERQqLUmNKsXxVRj9tT_-44">
          <mxGeometry y="300" width="200" height="30" as="geometry" />
        </mxCell>
        <mxCell id="mERQqLUmNKsXxVRj9tT_-91" value="" style="shape=partialRectangle;connectable=0;fillColor=none;top=0;left=0;bottom=0;right=0;editable=1;overflow=hidden;" vertex="1" parent="mERQqLUmNKsXxVRj9tT_-90">
          <mxGeometry width="30" height="30" as="geometry" />
        </mxCell>
        <mxCell id="mERQqLUmNKsXxVRj9tT_-92" value="updated_by" style="shape=partialRectangle;connectable=0;fillColor=none;top=0;left=0;bottom=0;right=0;align=left;spacingLeft=6;overflow=hidden;" vertex="1" parent="mERQqLUmNKsXxVRj9tT_-90">
          <mxGeometry x="30" width="170" height="30" as="geometry" />
        </mxCell>
        <mxCell id="mERQqLUmNKsXxVRj9tT_-87" value="" style="shape=partialRectangle;collapsible=0;dropTarget=0;pointerEvents=0;fillColor=none;top=0;left=0;bottom=0;right=0;points=[[0,0.5],[1,0.5]];portConstraint=eastwest;" vertex="1" parent="mERQqLUmNKsXxVRj9tT_-44">
          <mxGeometry y="330" width="200" height="30" as="geometry" />
        </mxCell>
        <mxCell id="mERQqLUmNKsXxVRj9tT_-88" value="" style="shape=partialRectangle;connectable=0;fillColor=none;top=0;left=0;bottom=0;right=0;editable=1;overflow=hidden;" vertex="1" parent="mERQqLUmNKsXxVRj9tT_-87">
          <mxGeometry width="30" height="30" as="geometry" />
        </mxCell>
        <mxCell id="mERQqLUmNKsXxVRj9tT_-89" value="deleted_by" style="shape=partialRectangle;connectable=0;fillColor=none;top=0;left=0;bottom=0;right=0;align=left;spacingLeft=6;overflow=hidden;" vertex="1" parent="mERQqLUmNKsXxVRj9tT_-87">
          <mxGeometry x="30" width="170" height="30" as="geometry" />
        </mxCell>
        <mxCell id="mERQqLUmNKsXxVRj9tT_-60" value="" style="shape=partialRectangle;collapsible=0;dropTarget=0;pointerEvents=0;fillColor=none;top=0;left=0;bottom=0;right=0;points=[[0,0.5],[1,0.5]];portConstraint=eastwest;" vertex="1" parent="mERQqLUmNKsXxVRj9tT_-44">
          <mxGeometry y="360" width="200" height="30" as="geometry" />
        </mxCell>
        <mxCell id="mERQqLUmNKsXxVRj9tT_-61" value="FK" style="shape=partialRectangle;connectable=0;fillColor=none;top=0;left=0;bottom=0;right=0;editable=1;overflow=hidden;" vertex="1" parent="mERQqLUmNKsXxVRj9tT_-60">
          <mxGeometry width="30" height="30" as="geometry" />
        </mxCell>
        <mxCell id="mERQqLUmNKsXxVRj9tT_-62" value="address_id" style="shape=partialRectangle;connectable=0;fillColor=none;top=0;left=0;bottom=0;right=0;align=left;spacingLeft=6;overflow=hidden;" vertex="1" parent="mERQqLUmNKsXxVRj9tT_-60">
          <mxGeometry x="30" width="170" height="30" as="geometry" />
        </mxCell>
        <mxCell id="mERQqLUmNKsXxVRj9tT_-63" value="" style="shape=partialRectangle;collapsible=0;dropTarget=0;pointerEvents=0;fillColor=none;top=0;left=0;bottom=0;right=0;points=[[0,0.5],[1,0.5]];portConstraint=eastwest;" vertex="1" parent="mERQqLUmNKsXxVRj9tT_-44">
          <mxGeometry y="390" width="200" height="30" as="geometry" />
        </mxCell>
        <mxCell id="mERQqLUmNKsXxVRj9tT_-64" value="FK" style="shape=partialRectangle;connectable=0;fillColor=none;top=0;left=0;bottom=0;right=0;editable=1;overflow=hidden;" vertex="1" parent="mERQqLUmNKsXxVRj9tT_-63">
          <mxGeometry width="30" height="30" as="geometry" />
        </mxCell>
        <mxCell id="mERQqLUmNKsXxVRj9tT_-65" value="pricing_id" style="shape=partialRectangle;connectable=0;fillColor=none;top=0;left=0;bottom=0;right=0;align=left;spacingLeft=6;overflow=hidden;" vertex="1" parent="mERQqLUmNKsXxVRj9tT_-63">
          <mxGeometry x="30" width="170" height="30" as="geometry" />
        </mxCell>
        <mxCell id="mERQqLUmNKsXxVRj9tT_-72" value="" style="shape=partialRectangle;collapsible=0;dropTarget=0;pointerEvents=0;fillColor=none;top=0;left=0;bottom=0;right=0;points=[[0,0.5],[1,0.5]];portConstraint=eastwest;" vertex="1" parent="mERQqLUmNKsXxVRj9tT_-44">
          <mxGeometry y="420" width="200" height="30" as="geometry" />
        </mxCell>
        <mxCell id="mERQqLUmNKsXxVRj9tT_-73" value="FK" style="shape=partialRectangle;connectable=0;fillColor=none;top=0;left=0;bottom=0;right=0;editable=1;overflow=hidden;" vertex="1" parent="mERQqLUmNKsXxVRj9tT_-72">
          <mxGeometry width="30" height="30" as="geometry" />
        </mxCell>
        <mxCell id="mERQqLUmNKsXxVRj9tT_-74" value="situation_id" style="shape=partialRectangle;connectable=0;fillColor=none;top=0;left=0;bottom=0;right=0;align=left;spacingLeft=6;overflow=hidden;" vertex="1" parent="mERQqLUmNKsXxVRj9tT_-72">
          <mxGeometry x="30" width="170" height="30" as="geometry" />
        </mxCell>
        <mxCell id="mERQqLUmNKsXxVRj9tT_-66" value="" style="shape=partialRectangle;collapsible=0;dropTarget=0;pointerEvents=0;fillColor=none;top=0;left=0;bottom=0;right=0;points=[[0,0.5],[1,0.5]];portConstraint=eastwest;" vertex="1" parent="mERQqLUmNKsXxVRj9tT_-44">
          <mxGeometry y="450" width="200" height="30" as="geometry" />
        </mxCell>
        <mxCell id="mERQqLUmNKsXxVRj9tT_-67" value="FK" style="shape=partialRectangle;connectable=0;fillColor=none;top=0;left=0;bottom=0;right=0;editable=1;overflow=hidden;" vertex="1" parent="mERQqLUmNKsXxVRj9tT_-66">
          <mxGeometry width="30" height="30" as="geometry" />
        </mxCell>
        <mxCell id="mERQqLUmNKsXxVRj9tT_-68" value="property_type_id" style="shape=partialRectangle;connectable=0;fillColor=none;top=0;left=0;bottom=0;right=0;align=left;spacingLeft=6;overflow=hidden;" vertex="1" parent="mERQqLUmNKsXxVRj9tT_-66">
          <mxGeometry x="30" width="170" height="30" as="geometry" />
        </mxCell>
        <mxCell id="mERQqLUmNKsXxVRj9tT_-151" value="" style="shape=partialRectangle;collapsible=0;dropTarget=0;pointerEvents=0;fillColor=none;top=0;left=0;bottom=0;right=0;points=[[0,0.5],[1,0.5]];portConstraint=eastwest;" vertex="1" parent="mERQqLUmNKsXxVRj9tT_-44">
          <mxGeometry y="480" width="200" height="30" as="geometry" />
        </mxCell>
        <mxCell id="mERQqLUmNKsXxVRj9tT_-152" value="FK" style="shape=partialRectangle;connectable=0;fillColor=none;top=0;left=0;bottom=0;right=0;editable=1;overflow=hidden;" vertex="1" parent="mERQqLUmNKsXxVRj9tT_-151">
          <mxGeometry width="30" height="30" as="geometry" />
        </mxCell>
        <mxCell id="mERQqLUmNKsXxVRj9tT_-153" value="locator_id" style="shape=partialRectangle;connectable=0;fillColor=none;top=0;left=0;bottom=0;right=0;align=left;spacingLeft=6;overflow=hidden;" vertex="1" parent="mERQqLUmNKsXxVRj9tT_-151">
          <mxGeometry x="30" width="170" height="30" as="geometry" />
        </mxCell>
        <mxCell id="mERQqLUmNKsXxVRj9tT_-154" value="" style="shape=partialRectangle;collapsible=0;dropTarget=0;pointerEvents=0;fillColor=none;top=0;left=0;bottom=0;right=0;points=[[0,0.5],[1,0.5]];portConstraint=eastwest;" vertex="1" parent="mERQqLUmNKsXxVRj9tT_-44">
          <mxGeometry y="510" width="200" height="30" as="geometry" />
        </mxCell>
        <mxCell id="mERQqLUmNKsXxVRj9tT_-155" value="FK" style="shape=partialRectangle;connectable=0;fillColor=none;top=0;left=0;bottom=0;right=0;editable=1;overflow=hidden;" vertex="1" parent="mERQqLUmNKsXxVRj9tT_-154">
          <mxGeometry width="30" height="30" as="geometry" />
        </mxCell>
        <mxCell id="mERQqLUmNKsXxVRj9tT_-156" value="lessee_id" style="shape=partialRectangle;connectable=0;fillColor=none;top=0;left=0;bottom=0;right=0;align=left;spacingLeft=6;overflow=hidden;" vertex="1" parent="mERQqLUmNKsXxVRj9tT_-154">
          <mxGeometry x="30" width="170" height="30" as="geometry" />
        </mxCell>
        <mxCell id="mERQqLUmNKsXxVRj9tT_-157" value="" style="shape=partialRectangle;collapsible=0;dropTarget=0;pointerEvents=0;fillColor=none;top=0;left=0;bottom=0;right=0;points=[[0,0.5],[1,0.5]];portConstraint=eastwest;" vertex="1" parent="mERQqLUmNKsXxVRj9tT_-44">
          <mxGeometry y="540" width="200" height="30" as="geometry" />
        </mxCell>
        <mxCell id="mERQqLUmNKsXxVRj9tT_-158" value="FK" style="shape=partialRectangle;connectable=0;fillColor=none;top=0;left=0;bottom=0;right=0;editable=1;overflow=hidden;" vertex="1" parent="mERQqLUmNKsXxVRj9tT_-157">
          <mxGeometry width="30" height="30" as="geometry" />
        </mxCell>
        <mxCell id="mERQqLUmNKsXxVRj9tT_-159" value="realtor_id" style="shape=partialRectangle;connectable=0;fillColor=none;top=0;left=0;bottom=0;right=0;align=left;spacingLeft=6;overflow=hidden;" vertex="1" parent="mERQqLUmNKsXxVRj9tT_-157">
          <mxGeometry x="30" width="170" height="30" as="geometry" />
        </mxCell>
        <mxCell id="mERQqLUmNKsXxVRj9tT_-99" value="Addresses" style="shape=table;startSize=30;container=1;collapsible=1;childLayout=tableLayout;fixedRows=1;rowLines=0;fontStyle=1;align=center;resizeLast=1;shadow=1;" vertex="1" parent="1">
          <mxGeometry x="750" y="-200" width="200" height="340" as="geometry">
            <mxRectangle x="400" y="80" width="90" height="30" as="alternateBounds" />
          </mxGeometry>
        </mxCell>
        <mxCell id="mERQqLUmNKsXxVRj9tT_-100" value="" style="shape=partialRectangle;collapsible=0;dropTarget=0;pointerEvents=0;fillColor=none;top=0;left=0;bottom=1;right=0;points=[[0,0.5],[1,0.5]];portConstraint=eastwest;" vertex="1" parent="mERQqLUmNKsXxVRj9tT_-99">
          <mxGeometry y="30" width="200" height="30" as="geometry" />
        </mxCell>
        <mxCell id="mERQqLUmNKsXxVRj9tT_-101" value="PK" style="shape=partialRectangle;connectable=0;fillColor=none;top=0;left=0;bottom=0;right=0;fontStyle=1;overflow=hidden;" vertex="1" parent="mERQqLUmNKsXxVRj9tT_-100">
          <mxGeometry width="30" height="30" as="geometry" />
        </mxCell>
        <mxCell id="mERQqLUmNKsXxVRj9tT_-102" value="id" style="shape=partialRectangle;connectable=0;fillColor=none;top=0;left=0;bottom=0;right=0;align=left;spacingLeft=6;fontStyle=5;overflow=hidden;" vertex="1" parent="mERQqLUmNKsXxVRj9tT_-100">
          <mxGeometry x="30" width="170" height="30" as="geometry" />
        </mxCell>
        <mxCell id="mERQqLUmNKsXxVRj9tT_-103" value="" style="shape=partialRectangle;collapsible=0;dropTarget=0;pointerEvents=0;fillColor=none;top=0;left=0;bottom=0;right=0;points=[[0,0.5],[1,0.5]];portConstraint=eastwest;" vertex="1" parent="mERQqLUmNKsXxVRj9tT_-99">
          <mxGeometry y="60" width="200" height="30" as="geometry" />
        </mxCell>
        <mxCell id="mERQqLUmNKsXxVRj9tT_-104" value="" style="shape=partialRectangle;connectable=0;fillColor=none;top=0;left=0;bottom=0;right=0;editable=1;overflow=hidden;" vertex="1" parent="mERQqLUmNKsXxVRj9tT_-103">
          <mxGeometry width="30" height="30" as="geometry" />
        </mxCell>
        <mxCell id="mERQqLUmNKsXxVRj9tT_-105" value="zipcode" style="shape=partialRectangle;connectable=0;fillColor=none;top=0;left=0;bottom=0;right=0;align=left;spacingLeft=6;overflow=hidden;" vertex="1" parent="mERQqLUmNKsXxVRj9tT_-103">
          <mxGeometry x="30" width="170" height="30" as="geometry" />
        </mxCell>
        <mxCell id="mERQqLUmNKsXxVRj9tT_-106" value="" style="shape=partialRectangle;collapsible=0;dropTarget=0;pointerEvents=0;fillColor=none;top=0;left=0;bottom=0;right=0;points=[[0,0.5],[1,0.5]];portConstraint=eastwest;" vertex="1" parent="mERQqLUmNKsXxVRj9tT_-99">
          <mxGeometry y="90" width="200" height="30" as="geometry" />
        </mxCell>
        <mxCell id="mERQqLUmNKsXxVRj9tT_-107" value="" style="shape=partialRectangle;connectable=0;fillColor=none;top=0;left=0;bottom=0;right=0;editable=1;overflow=hidden;" vertex="1" parent="mERQqLUmNKsXxVRj9tT_-106">
          <mxGeometry width="30" height="30" as="geometry" />
        </mxCell>
        <mxCell id="mERQqLUmNKsXxVRj9tT_-108" value="state" style="shape=partialRectangle;connectable=0;fillColor=none;top=0;left=0;bottom=0;right=0;align=left;spacingLeft=6;overflow=hidden;" vertex="1" parent="mERQqLUmNKsXxVRj9tT_-106">
          <mxGeometry x="30" width="170" height="30" as="geometry" />
        </mxCell>
        <mxCell id="mERQqLUmNKsXxVRj9tT_-109" value="" style="shape=partialRectangle;collapsible=0;dropTarget=0;pointerEvents=0;fillColor=none;top=0;left=0;bottom=0;right=0;points=[[0,0.5],[1,0.5]];portConstraint=eastwest;" vertex="1" parent="mERQqLUmNKsXxVRj9tT_-99">
          <mxGeometry y="120" width="200" height="30" as="geometry" />
        </mxCell>
        <mxCell id="mERQqLUmNKsXxVRj9tT_-110" value="" style="shape=partialRectangle;connectable=0;fillColor=none;top=0;left=0;bottom=0;right=0;editable=1;overflow=hidden;" vertex="1" parent="mERQqLUmNKsXxVRj9tT_-109">
          <mxGeometry width="30" height="30" as="geometry" />
        </mxCell>
        <mxCell id="mERQqLUmNKsXxVRj9tT_-111" value="city" style="shape=partialRectangle;connectable=0;fillColor=none;top=0;left=0;bottom=0;right=0;align=left;spacingLeft=6;overflow=hidden;" vertex="1" parent="mERQqLUmNKsXxVRj9tT_-109">
          <mxGeometry x="30" width="170" height="30" as="geometry" />
        </mxCell>
        <mxCell id="mERQqLUmNKsXxVRj9tT_-113" value="" style="shape=partialRectangle;collapsible=0;dropTarget=0;pointerEvents=0;fillColor=none;top=0;left=0;bottom=0;right=0;points=[[0,0.5],[1,0.5]];portConstraint=eastwest;" vertex="1" parent="mERQqLUmNKsXxVRj9tT_-99">
          <mxGeometry y="150" width="200" height="30" as="geometry" />
        </mxCell>
        <mxCell id="mERQqLUmNKsXxVRj9tT_-114" value="" style="shape=partialRectangle;connectable=0;fillColor=none;top=0;left=0;bottom=0;right=0;editable=1;overflow=hidden;" vertex="1" parent="mERQqLUmNKsXxVRj9tT_-113">
          <mxGeometry width="30" height="30" as="geometry" />
        </mxCell>
        <mxCell id="mERQqLUmNKsXxVRj9tT_-115" value="neighborhood" style="shape=partialRectangle;connectable=0;fillColor=none;top=0;left=0;bottom=0;right=0;align=left;spacingLeft=6;overflow=hidden;" vertex="1" parent="mERQqLUmNKsXxVRj9tT_-113">
          <mxGeometry x="30" width="170" height="30" as="geometry" />
        </mxCell>
        <mxCell id="mERQqLUmNKsXxVRj9tT_-116" value="" style="shape=partialRectangle;collapsible=0;dropTarget=0;pointerEvents=0;fillColor=none;top=0;left=0;bottom=0;right=0;points=[[0,0.5],[1,0.5]];portConstraint=eastwest;" vertex="1" parent="mERQqLUmNKsXxVRj9tT_-99">
          <mxGeometry y="180" width="200" height="30" as="geometry" />
        </mxCell>
        <mxCell id="mERQqLUmNKsXxVRj9tT_-117" value="" style="shape=partialRectangle;connectable=0;fillColor=none;top=0;left=0;bottom=0;right=0;editable=1;overflow=hidden;" vertex="1" parent="mERQqLUmNKsXxVRj9tT_-116">
          <mxGeometry width="30" height="30" as="geometry" />
        </mxCell>
        <mxCell id="mERQqLUmNKsXxVRj9tT_-118" value="street" style="shape=partialRectangle;connectable=0;fillColor=none;top=0;left=0;bottom=0;right=0;align=left;spacingLeft=6;overflow=hidden;" vertex="1" parent="mERQqLUmNKsXxVRj9tT_-116">
          <mxGeometry x="30" width="170" height="30" as="geometry" />
        </mxCell>
        <mxCell id="mERQqLUmNKsXxVRj9tT_-119" value="" style="shape=partialRectangle;collapsible=0;dropTarget=0;pointerEvents=0;fillColor=none;top=0;left=0;bottom=0;right=0;points=[[0,0.5],[1,0.5]];portConstraint=eastwest;" vertex="1" parent="mERQqLUmNKsXxVRj9tT_-99">
          <mxGeometry y="210" width="200" height="30" as="geometry" />
        </mxCell>
        <mxCell id="mERQqLUmNKsXxVRj9tT_-120" value="" style="shape=partialRectangle;connectable=0;fillColor=none;top=0;left=0;bottom=0;right=0;editable=1;overflow=hidden;" vertex="1" parent="mERQqLUmNKsXxVRj9tT_-119">
          <mxGeometry width="30" height="30" as="geometry" />
        </mxCell>
        <mxCell id="mERQqLUmNKsXxVRj9tT_-121" value="number" style="shape=partialRectangle;connectable=0;fillColor=none;top=0;left=0;bottom=0;right=0;align=left;spacingLeft=6;overflow=hidden;" vertex="1" parent="mERQqLUmNKsXxVRj9tT_-119">
          <mxGeometry x="30" width="170" height="30" as="geometry" />
        </mxCell>
        <mxCell id="mERQqLUmNKsXxVRj9tT_-122" value="" style="shape=partialRectangle;collapsible=0;dropTarget=0;pointerEvents=0;fillColor=none;top=0;left=0;bottom=0;right=0;points=[[0,0.5],[1,0.5]];portConstraint=eastwest;" vertex="1" parent="mERQqLUmNKsXxVRj9tT_-99">
          <mxGeometry y="240" width="200" height="30" as="geometry" />
        </mxCell>
        <mxCell id="mERQqLUmNKsXxVRj9tT_-123" value="" style="shape=partialRectangle;connectable=0;fillColor=none;top=0;left=0;bottom=0;right=0;editable=1;overflow=hidden;" vertex="1" parent="mERQqLUmNKsXxVRj9tT_-122">
          <mxGeometry width="30" height="30" as="geometry" />
        </mxCell>
        <mxCell id="mERQqLUmNKsXxVRj9tT_-124" value="complement" style="shape=partialRectangle;connectable=0;fillColor=none;top=0;left=0;bottom=0;right=0;align=left;spacingLeft=6;overflow=hidden;" vertex="1" parent="mERQqLUmNKsXxVRj9tT_-122">
          <mxGeometry x="30" width="170" height="30" as="geometry" />
        </mxCell>
        <mxCell id="mERQqLUmNKsXxVRj9tT_-125" value="" style="shape=partialRectangle;collapsible=0;dropTarget=0;pointerEvents=0;fillColor=none;top=0;left=0;bottom=0;right=0;points=[[0,0.5],[1,0.5]];portConstraint=eastwest;" vertex="1" parent="mERQqLUmNKsXxVRj9tT_-99">
          <mxGeometry y="270" width="200" height="30" as="geometry" />
        </mxCell>
        <mxCell id="mERQqLUmNKsXxVRj9tT_-126" value="" style="shape=partialRectangle;connectable=0;fillColor=none;top=0;left=0;bottom=0;right=0;editable=1;overflow=hidden;" vertex="1" parent="mERQqLUmNKsXxVRj9tT_-125">
          <mxGeometry width="30" height="30" as="geometry" />
        </mxCell>
        <mxCell id="mERQqLUmNKsXxVRj9tT_-127" value="longitude" style="shape=partialRectangle;connectable=0;fillColor=none;top=0;left=0;bottom=0;right=0;align=left;spacingLeft=6;overflow=hidden;" vertex="1" parent="mERQqLUmNKsXxVRj9tT_-125">
          <mxGeometry x="30" width="170" height="30" as="geometry" />
        </mxCell>
        <mxCell id="mERQqLUmNKsXxVRj9tT_-128" value="" style="shape=partialRectangle;collapsible=0;dropTarget=0;pointerEvents=0;fillColor=none;top=0;left=0;bottom=0;right=0;points=[[0,0.5],[1,0.5]];portConstraint=eastwest;" vertex="1" parent="mERQqLUmNKsXxVRj9tT_-99">
          <mxGeometry y="300" width="200" height="30" as="geometry" />
        </mxCell>
        <mxCell id="mERQqLUmNKsXxVRj9tT_-129" value="" style="shape=partialRectangle;connectable=0;fillColor=none;top=0;left=0;bottom=0;right=0;editable=1;overflow=hidden;" vertex="1" parent="mERQqLUmNKsXxVRj9tT_-128">
          <mxGeometry width="30" height="30" as="geometry" />
        </mxCell>
        <mxCell id="mERQqLUmNKsXxVRj9tT_-130" value="latitude" style="shape=partialRectangle;connectable=0;fillColor=none;top=0;left=0;bottom=0;right=0;align=left;spacingLeft=6;overflow=hidden;" vertex="1" parent="mERQqLUmNKsXxVRj9tT_-128">
          <mxGeometry x="30" width="170" height="30" as="geometry" />
        </mxCell>
        <mxCell id="mERQqLUmNKsXxVRj9tT_-131" value="Pricings" style="shape=table;startSize=30;container=1;collapsible=1;childLayout=tableLayout;fixedRows=1;rowLines=0;fontStyle=1;align=center;resizeLast=1;shadow=1;" vertex="1" parent="1">
          <mxGeometry x="580" y="180" width="200" height="220" as="geometry" />
        </mxCell>
        <mxCell id="mERQqLUmNKsXxVRj9tT_-132" value="" style="shape=partialRectangle;collapsible=0;dropTarget=0;pointerEvents=0;fillColor=none;top=0;left=0;bottom=1;right=0;points=[[0,0.5],[1,0.5]];portConstraint=eastwest;" vertex="1" parent="mERQqLUmNKsXxVRj9tT_-131">
          <mxGeometry y="30" width="200" height="30" as="geometry" />
        </mxCell>
        <mxCell id="mERQqLUmNKsXxVRj9tT_-133" value="PK" style="shape=partialRectangle;connectable=0;fillColor=none;top=0;left=0;bottom=0;right=0;fontStyle=1;overflow=hidden;" vertex="1" parent="mERQqLUmNKsXxVRj9tT_-132">
          <mxGeometry width="30" height="30" as="geometry" />
        </mxCell>
        <mxCell id="mERQqLUmNKsXxVRj9tT_-134" value="id" style="shape=partialRectangle;connectable=0;fillColor=none;top=0;left=0;bottom=0;right=0;align=left;spacingLeft=6;fontStyle=5;overflow=hidden;" vertex="1" parent="mERQqLUmNKsXxVRj9tT_-132">
          <mxGeometry x="30" width="170" height="30" as="geometry" />
        </mxCell>
        <mxCell id="mERQqLUmNKsXxVRj9tT_-135" value="" style="shape=partialRectangle;collapsible=0;dropTarget=0;pointerEvents=0;fillColor=none;top=0;left=0;bottom=0;right=0;points=[[0,0.5],[1,0.5]];portConstraint=eastwest;" vertex="1" parent="mERQqLUmNKsXxVRj9tT_-131">
          <mxGeometry y="60" width="200" height="30" as="geometry" />
        </mxCell>
        <mxCell id="mERQqLUmNKsXxVRj9tT_-136" value="" style="shape=partialRectangle;connectable=0;fillColor=none;top=0;left=0;bottom=0;right=0;editable=1;overflow=hidden;" vertex="1" parent="mERQqLUmNKsXxVRj9tT_-135">
          <mxGeometry width="30" height="30" as="geometry" />
        </mxCell>
        <mxCell id="mERQqLUmNKsXxVRj9tT_-137" value="sale" style="shape=partialRectangle;connectable=0;fillColor=none;top=0;left=0;bottom=0;right=0;align=left;spacingLeft=6;overflow=hidden;" vertex="1" parent="mERQqLUmNKsXxVRj9tT_-135">
          <mxGeometry x="30" width="170" height="30" as="geometry" />
        </mxCell>
        <mxCell id="mERQqLUmNKsXxVRj9tT_-138" value="" style="shape=partialRectangle;collapsible=0;dropTarget=0;pointerEvents=0;fillColor=none;top=0;left=0;bottom=0;right=0;points=[[0,0.5],[1,0.5]];portConstraint=eastwest;" vertex="1" parent="mERQqLUmNKsXxVRj9tT_-131">
          <mxGeometry y="90" width="200" height="30" as="geometry" />
        </mxCell>
        <mxCell id="mERQqLUmNKsXxVRj9tT_-139" value="" style="shape=partialRectangle;connectable=0;fillColor=none;top=0;left=0;bottom=0;right=0;editable=1;overflow=hidden;" vertex="1" parent="mERQqLUmNKsXxVRj9tT_-138">
          <mxGeometry width="30" height="30" as="geometry" />
        </mxCell>
        <mxCell id="mERQqLUmNKsXxVRj9tT_-140" value="rental" style="shape=partialRectangle;connectable=0;fillColor=none;top=0;left=0;bottom=0;right=0;align=left;spacingLeft=6;overflow=hidden;" vertex="1" parent="mERQqLUmNKsXxVRj9tT_-138">
          <mxGeometry x="30" width="170" height="30" as="geometry" />
        </mxCell>
        <mxCell id="mERQqLUmNKsXxVRj9tT_-141" value="" style="shape=partialRectangle;collapsible=0;dropTarget=0;pointerEvents=0;fillColor=none;top=0;left=0;bottom=0;right=0;points=[[0,0.5],[1,0.5]];portConstraint=eastwest;" vertex="1" parent="mERQqLUmNKsXxVRj9tT_-131">
          <mxGeometry y="120" width="200" height="30" as="geometry" />
        </mxCell>
        <mxCell id="mERQqLUmNKsXxVRj9tT_-142" value="" style="shape=partialRectangle;connectable=0;fillColor=none;top=0;left=0;bottom=0;right=0;editable=1;overflow=hidden;" vertex="1" parent="mERQqLUmNKsXxVRj9tT_-141">
          <mxGeometry width="30" height="30" as="geometry" />
        </mxCell>
        <mxCell id="mERQqLUmNKsXxVRj9tT_-143" value="condominium" style="shape=partialRectangle;connectable=0;fillColor=none;top=0;left=0;bottom=0;right=0;align=left;spacingLeft=6;overflow=hidden;" vertex="1" parent="mERQqLUmNKsXxVRj9tT_-141">
          <mxGeometry x="30" width="170" height="30" as="geometry" />
        </mxCell>
        <mxCell id="mERQqLUmNKsXxVRj9tT_-145" value="" style="shape=partialRectangle;collapsible=0;dropTarget=0;pointerEvents=0;fillColor=none;top=0;left=0;bottom=0;right=0;points=[[0,0.5],[1,0.5]];portConstraint=eastwest;" vertex="1" parent="mERQqLUmNKsXxVRj9tT_-131">
          <mxGeometry y="150" width="200" height="30" as="geometry" />
        </mxCell>
        <mxCell id="mERQqLUmNKsXxVRj9tT_-146" value="" style="shape=partialRectangle;connectable=0;fillColor=none;top=0;left=0;bottom=0;right=0;editable=1;overflow=hidden;" vertex="1" parent="mERQqLUmNKsXxVRj9tT_-145">
          <mxGeometry width="30" height="30" as="geometry" />
        </mxCell>
        <mxCell id="mERQqLUmNKsXxVRj9tT_-147" value="iptu" style="shape=partialRectangle;connectable=0;fillColor=none;top=0;left=0;bottom=0;right=0;align=left;spacingLeft=6;overflow=hidden;" vertex="1" parent="mERQqLUmNKsXxVRj9tT_-145">
          <mxGeometry x="30" width="170" height="30" as="geometry" />
        </mxCell>
        <mxCell id="mERQqLUmNKsXxVRj9tT_-148" value="" style="shape=partialRectangle;collapsible=0;dropTarget=0;pointerEvents=0;fillColor=none;top=0;left=0;bottom=0;right=0;points=[[0,0.5],[1,0.5]];portConstraint=eastwest;" vertex="1" parent="mERQqLUmNKsXxVRj9tT_-131">
          <mxGeometry y="180" width="200" height="30" as="geometry" />
        </mxCell>
        <mxCell id="mERQqLUmNKsXxVRj9tT_-149" value="" style="shape=partialRectangle;connectable=0;fillColor=none;top=0;left=0;bottom=0;right=0;editable=1;overflow=hidden;" vertex="1" parent="mERQqLUmNKsXxVRj9tT_-148">
          <mxGeometry width="30" height="30" as="geometry" />
        </mxCell>
        <mxCell id="mERQqLUmNKsXxVRj9tT_-150" value="accepts_financing" style="shape=partialRectangle;connectable=0;fillColor=none;top=0;left=0;bottom=0;right=0;align=left;spacingLeft=6;overflow=hidden;" vertex="1" parent="mERQqLUmNKsXxVRj9tT_-148">
          <mxGeometry x="30" width="170" height="30" as="geometry" />
        </mxCell>
        <mxCell id="mERQqLUmNKsXxVRj9tT_-160" value="Customer" style="shape=table;startSize=30;container=1;collapsible=1;childLayout=tableLayout;fixedRows=1;rowLines=0;fontStyle=1;align=center;resizeLast=1;shadow=1;" vertex="1" parent="1">
          <mxGeometry x="660" y="-740" width="240" height="520" as="geometry" />
        </mxCell>
        <mxCell id="mERQqLUmNKsXxVRj9tT_-161" value="" style="shape=partialRectangle;collapsible=0;dropTarget=0;pointerEvents=0;fillColor=none;top=0;left=0;bottom=1;right=0;points=[[0,0.5],[1,0.5]];portConstraint=eastwest;" vertex="1" parent="mERQqLUmNKsXxVRj9tT_-160">
          <mxGeometry y="30" width="240" height="30" as="geometry" />
        </mxCell>
        <mxCell id="mERQqLUmNKsXxVRj9tT_-162" value="PK" style="shape=partialRectangle;connectable=0;fillColor=none;top=0;left=0;bottom=0;right=0;fontStyle=1;overflow=hidden;" vertex="1" parent="mERQqLUmNKsXxVRj9tT_-161">
          <mxGeometry width="30" height="30" as="geometry" />
        </mxCell>
        <mxCell id="mERQqLUmNKsXxVRj9tT_-163" value="id" style="shape=partialRectangle;connectable=0;fillColor=none;top=0;left=0;bottom=0;right=0;align=left;spacingLeft=6;fontStyle=5;overflow=hidden;" vertex="1" parent="mERQqLUmNKsXxVRj9tT_-161">
          <mxGeometry x="30" width="210" height="30" as="geometry" />
        </mxCell>
        <mxCell id="mERQqLUmNKsXxVRj9tT_-164" value="" style="shape=partialRectangle;collapsible=0;dropTarget=0;pointerEvents=0;fillColor=none;top=0;left=0;bottom=0;right=0;points=[[0,0.5],[1,0.5]];portConstraint=eastwest;" vertex="1" parent="mERQqLUmNKsXxVRj9tT_-160">
          <mxGeometry y="60" width="240" height="30" as="geometry" />
        </mxCell>
        <mxCell id="mERQqLUmNKsXxVRj9tT_-165" value="" style="shape=partialRectangle;connectable=0;fillColor=none;top=0;left=0;bottom=0;right=0;editable=1;overflow=hidden;" vertex="1" parent="mERQqLUmNKsXxVRj9tT_-164">
          <mxGeometry width="30" height="30" as="geometry" />
        </mxCell>
        <mxCell id="mERQqLUmNKsXxVRj9tT_-166" value="name" style="shape=partialRectangle;connectable=0;fillColor=none;top=0;left=0;bottom=0;right=0;align=left;spacingLeft=6;overflow=hidden;" vertex="1" parent="mERQqLUmNKsXxVRj9tT_-164">
          <mxGeometry x="30" width="210" height="30" as="geometry" />
        </mxCell>
        <mxCell id="mERQqLUmNKsXxVRj9tT_-167" value="" style="shape=partialRectangle;collapsible=0;dropTarget=0;pointerEvents=0;fillColor=none;top=0;left=0;bottom=0;right=0;points=[[0,0.5],[1,0.5]];portConstraint=eastwest;" vertex="1" parent="mERQqLUmNKsXxVRj9tT_-160">
          <mxGeometry y="90" width="240" height="30" as="geometry" />
        </mxCell>
        <mxCell id="mERQqLUmNKsXxVRj9tT_-168" value="" style="shape=partialRectangle;connectable=0;fillColor=none;top=0;left=0;bottom=0;right=0;editable=1;overflow=hidden;" vertex="1" parent="mERQqLUmNKsXxVRj9tT_-167">
          <mxGeometry width="30" height="30" as="geometry" />
        </mxCell>
        <mxCell id="mERQqLUmNKsXxVRj9tT_-169" value="e-mail" style="shape=partialRectangle;connectable=0;fillColor=none;top=0;left=0;bottom=0;right=0;align=left;spacingLeft=6;overflow=hidden;" vertex="1" parent="mERQqLUmNKsXxVRj9tT_-167">
          <mxGeometry x="30" width="210" height="30" as="geometry" />
        </mxCell>
        <mxCell id="mERQqLUmNKsXxVRj9tT_-170" value="" style="shape=partialRectangle;collapsible=0;dropTarget=0;pointerEvents=0;fillColor=none;top=0;left=0;bottom=0;right=0;points=[[0,0.5],[1,0.5]];portConstraint=eastwest;" vertex="1" parent="mERQqLUmNKsXxVRj9tT_-160">
          <mxGeometry y="120" width="240" height="30" as="geometry" />
        </mxCell>
        <mxCell id="mERQqLUmNKsXxVRj9tT_-171" value="" style="shape=partialRectangle;connectable=0;fillColor=none;top=0;left=0;bottom=0;right=0;editable=1;overflow=hidden;" vertex="1" parent="mERQqLUmNKsXxVRj9tT_-170">
          <mxGeometry width="30" height="30" as="geometry" />
        </mxCell>
        <mxCell id="mERQqLUmNKsXxVRj9tT_-172" value="password" style="shape=partialRectangle;connectable=0;fillColor=none;top=0;left=0;bottom=0;right=0;align=left;spacingLeft=6;overflow=hidden;" vertex="1" parent="mERQqLUmNKsXxVRj9tT_-170">
          <mxGeometry x="30" width="210" height="30" as="geometry" />
        </mxCell>
        <mxCell id="mERQqLUmNKsXxVRj9tT_-177" value="" style="shape=partialRectangle;collapsible=0;dropTarget=0;pointerEvents=0;fillColor=none;top=0;left=0;bottom=0;right=0;points=[[0,0.5],[1,0.5]];portConstraint=eastwest;" vertex="1" parent="mERQqLUmNKsXxVRj9tT_-160">
          <mxGeometry y="150" width="240" height="30" as="geometry" />
        </mxCell>
        <mxCell id="mERQqLUmNKsXxVRj9tT_-178" value="" style="shape=partialRectangle;connectable=0;fillColor=none;top=0;left=0;bottom=0;right=0;editable=1;overflow=hidden;" vertex="1" parent="mERQqLUmNKsXxVRj9tT_-177">
          <mxGeometry width="30" height="30" as="geometry" />
        </mxCell>
        <mxCell id="mERQqLUmNKsXxVRj9tT_-179" value="document" style="shape=partialRectangle;connectable=0;fillColor=none;top=0;left=0;bottom=0;right=0;align=left;spacingLeft=6;overflow=hidden;" vertex="1" parent="mERQqLUmNKsXxVRj9tT_-177">
          <mxGeometry x="30" width="210" height="30" as="geometry" />
        </mxCell>
        <mxCell id="mERQqLUmNKsXxVRj9tT_-180" value="" style="shape=partialRectangle;collapsible=0;dropTarget=0;pointerEvents=0;fillColor=none;top=0;left=0;bottom=0;right=0;points=[[0,0.5],[1,0.5]];portConstraint=eastwest;" vertex="1" parent="mERQqLUmNKsXxVRj9tT_-160">
          <mxGeometry y="180" width="240" height="30" as="geometry" />
        </mxCell>
        <mxCell id="mERQqLUmNKsXxVRj9tT_-181" value="" style="shape=partialRectangle;connectable=0;fillColor=none;top=0;left=0;bottom=0;right=0;editable=1;overflow=hidden;" vertex="1" parent="mERQqLUmNKsXxVRj9tT_-180">
          <mxGeometry width="30" height="30" as="geometry" />
        </mxCell>
        <mxCell id="mERQqLUmNKsXxVRj9tT_-182" value="document_secondary" style="shape=partialRectangle;connectable=0;fillColor=none;top=0;left=0;bottom=0;right=0;align=left;spacingLeft=6;overflow=hidden;" vertex="1" parent="mERQqLUmNKsXxVRj9tT_-180">
          <mxGeometry x="30" width="210" height="30" as="geometry" />
        </mxCell>
        <mxCell id="mERQqLUmNKsXxVRj9tT_-183" value="" style="shape=partialRectangle;collapsible=0;dropTarget=0;pointerEvents=0;fillColor=none;top=0;left=0;bottom=0;right=0;points=[[0,0.5],[1,0.5]];portConstraint=eastwest;" vertex="1" parent="mERQqLUmNKsXxVRj9tT_-160">
          <mxGeometry y="210" width="240" height="30" as="geometry" />
        </mxCell>
        <mxCell id="mERQqLUmNKsXxVRj9tT_-184" value="" style="shape=partialRectangle;connectable=0;fillColor=none;top=0;left=0;bottom=0;right=0;editable=1;overflow=hidden;" vertex="1" parent="mERQqLUmNKsXxVRj9tT_-183">
          <mxGeometry width="30" height="30" as="geometry" />
        </mxCell>
        <mxCell id="mERQqLUmNKsXxVRj9tT_-185" value="document_secondary_complement" style="shape=partialRectangle;connectable=0;fillColor=none;top=0;left=0;bottom=0;right=0;align=left;spacingLeft=6;overflow=hidden;" vertex="1" parent="mERQqLUmNKsXxVRj9tT_-183">
          <mxGeometry x="30" width="210" height="30" as="geometry" />
        </mxCell>
        <mxCell id="mERQqLUmNKsXxVRj9tT_-186" value="" style="shape=partialRectangle;collapsible=0;dropTarget=0;pointerEvents=0;fillColor=none;top=0;left=0;bottom=0;right=0;points=[[0,0.5],[1,0.5]];portConstraint=eastwest;" vertex="1" parent="mERQqLUmNKsXxVRj9tT_-160">
          <mxGeometry y="240" width="240" height="30" as="geometry" />
        </mxCell>
        <mxCell id="mERQqLUmNKsXxVRj9tT_-187" value="" style="shape=partialRectangle;connectable=0;fillColor=none;top=0;left=0;bottom=0;right=0;editable=1;overflow=hidden;" vertex="1" parent="mERQqLUmNKsXxVRj9tT_-186">
          <mxGeometry width="30" height="30" as="geometry" />
        </mxCell>
        <mxCell id="mERQqLUmNKsXxVRj9tT_-188" value="date_of_birth" style="shape=partialRectangle;connectable=0;fillColor=none;top=0;left=0;bottom=0;right=0;align=left;spacingLeft=6;overflow=hidden;" vertex="1" parent="mERQqLUmNKsXxVRj9tT_-186">
          <mxGeometry x="30" width="210" height="30" as="geometry" />
        </mxCell>
        <mxCell id="mERQqLUmNKsXxVRj9tT_-189" value="" style="shape=partialRectangle;collapsible=0;dropTarget=0;pointerEvents=0;fillColor=none;top=0;left=0;bottom=0;right=0;points=[[0,0.5],[1,0.5]];portConstraint=eastwest;" vertex="1" parent="mERQqLUmNKsXxVRj9tT_-160">
          <mxGeometry y="270" width="240" height="30" as="geometry" />
        </mxCell>
        <mxCell id="mERQqLUmNKsXxVRj9tT_-190" value="" style="shape=partialRectangle;connectable=0;fillColor=none;top=0;left=0;bottom=0;right=0;editable=1;overflow=hidden;" vertex="1" parent="mERQqLUmNKsXxVRj9tT_-189">
          <mxGeometry width="30" height="30" as="geometry" />
        </mxCell>
        <mxCell id="mERQqLUmNKsXxVRj9tT_-191" value="place_of_birth" style="shape=partialRectangle;connectable=0;fillColor=none;top=0;left=0;bottom=0;right=0;align=left;spacingLeft=6;overflow=hidden;" vertex="1" parent="mERQqLUmNKsXxVRj9tT_-189">
          <mxGeometry x="30" width="210" height="30" as="geometry" />
        </mxCell>
        <mxCell id="mERQqLUmNKsXxVRj9tT_-192" value="" style="shape=partialRectangle;collapsible=0;dropTarget=0;pointerEvents=0;fillColor=none;top=0;left=0;bottom=0;right=0;points=[[0,0.5],[1,0.5]];portConstraint=eastwest;" vertex="1" parent="mERQqLUmNKsXxVRj9tT_-160">
          <mxGeometry y="300" width="240" height="30" as="geometry" />
        </mxCell>
        <mxCell id="mERQqLUmNKsXxVRj9tT_-193" value="" style="shape=partialRectangle;connectable=0;fillColor=none;top=0;left=0;bottom=0;right=0;editable=1;overflow=hidden;" vertex="1" parent="mERQqLUmNKsXxVRj9tT_-192">
          <mxGeometry width="30" height="30" as="geometry" />
        </mxCell>
        <mxCell id="mERQqLUmNKsXxVRj9tT_-194" value="civil_status" style="shape=partialRectangle;connectable=0;fillColor=none;top=0;left=0;bottom=0;right=0;align=left;spacingLeft=6;overflow=hidden;" vertex="1" parent="mERQqLUmNKsXxVRj9tT_-192">
          <mxGeometry x="30" width="210" height="30" as="geometry" />
        </mxCell>
        <mxCell id="mERQqLUmNKsXxVRj9tT_-195" value="" style="shape=partialRectangle;collapsible=0;dropTarget=0;pointerEvents=0;fillColor=none;top=0;left=0;bottom=0;right=0;points=[[0,0.5],[1,0.5]];portConstraint=eastwest;" vertex="1" parent="mERQqLUmNKsXxVRj9tT_-160">
          <mxGeometry y="330" width="240" height="30" as="geometry" />
        </mxCell>
        <mxCell id="mERQqLUmNKsXxVRj9tT_-196" value="" style="shape=partialRectangle;connectable=0;fillColor=none;top=0;left=0;bottom=0;right=0;editable=1;overflow=hidden;" vertex="1" parent="mERQqLUmNKsXxVRj9tT_-195">
          <mxGeometry width="30" height="30" as="geometry" />
        </mxCell>
        <mxCell id="mERQqLUmNKsXxVRj9tT_-197" value="cover" style="shape=partialRectangle;connectable=0;fillColor=none;top=0;left=0;bottom=0;right=0;align=left;spacingLeft=6;overflow=hidden;" vertex="1" parent="mERQqLUmNKsXxVRj9tT_-195">
          <mxGeometry x="30" width="210" height="30" as="geometry" />
        </mxCell>
        <mxCell id="mERQqLUmNKsXxVRj9tT_-198" value="" style="shape=partialRectangle;collapsible=0;dropTarget=0;pointerEvents=0;fillColor=none;top=0;left=0;bottom=0;right=0;points=[[0,0.5],[1,0.5]];portConstraint=eastwest;" vertex="1" parent="mERQqLUmNKsXxVRj9tT_-160">
          <mxGeometry y="360" width="240" height="30" as="geometry" />
        </mxCell>
        <mxCell id="mERQqLUmNKsXxVRj9tT_-199" value="" style="shape=partialRectangle;connectable=0;fillColor=none;top=0;left=0;bottom=0;right=0;editable=1;overflow=hidden;" vertex="1" parent="mERQqLUmNKsXxVRj9tT_-198">
          <mxGeometry width="30" height="30" as="geometry" />
        </mxCell>
        <mxCell id="mERQqLUmNKsXxVRj9tT_-200" value="telephone" style="shape=partialRectangle;connectable=0;fillColor=none;top=0;left=0;bottom=0;right=0;align=left;spacingLeft=6;overflow=hidden;" vertex="1" parent="mERQqLUmNKsXxVRj9tT_-198">
          <mxGeometry x="30" width="210" height="30" as="geometry" />
        </mxCell>
        <mxCell id="mERQqLUmNKsXxVRj9tT_-201" value="" style="shape=partialRectangle;collapsible=0;dropTarget=0;pointerEvents=0;fillColor=none;top=0;left=0;bottom=0;right=0;points=[[0,0.5],[1,0.5]];portConstraint=eastwest;" vertex="1" parent="mERQqLUmNKsXxVRj9tT_-160">
          <mxGeometry y="390" width="240" height="30" as="geometry" />
        </mxCell>
        <mxCell id="mERQqLUmNKsXxVRj9tT_-202" value="" style="shape=partialRectangle;connectable=0;fillColor=none;top=0;left=0;bottom=0;right=0;editable=1;overflow=hidden;" vertex="1" parent="mERQqLUmNKsXxVRj9tT_-201">
          <mxGeometry width="30" height="30" as="geometry" />
        </mxCell>
        <mxCell id="mERQqLUmNKsXxVRj9tT_-203" value="cell_phone" style="shape=partialRectangle;connectable=0;fillColor=none;top=0;left=0;bottom=0;right=0;align=left;spacingLeft=6;overflow=hidden;" vertex="1" parent="mERQqLUmNKsXxVRj9tT_-201">
          <mxGeometry x="30" width="210" height="30" as="geometry" />
        </mxCell>
        <mxCell id="mERQqLUmNKsXxVRj9tT_-204" value="" style="shape=partialRectangle;collapsible=0;dropTarget=0;pointerEvents=0;fillColor=none;top=0;left=0;bottom=0;right=0;points=[[0,0.5],[1,0.5]];portConstraint=eastwest;" vertex="1" parent="mERQqLUmNKsXxVRj9tT_-160">
          <mxGeometry y="420" width="240" height="30" as="geometry" />
        </mxCell>
        <mxCell id="mERQqLUmNKsXxVRj9tT_-205" value="" style="shape=partialRectangle;connectable=0;fillColor=none;top=0;left=0;bottom=0;right=0;editable=1;overflow=hidden;" vertex="1" parent="mERQqLUmNKsXxVRj9tT_-204">
          <mxGeometry width="30" height="30" as="geometry" />
        </mxCell>
        <mxCell id="mERQqLUmNKsXxVRj9tT_-206" value="lessor" style="shape=partialRectangle;connectable=0;fillColor=none;top=0;left=0;bottom=0;right=0;align=left;spacingLeft=6;overflow=hidden;" vertex="1" parent="mERQqLUmNKsXxVRj9tT_-204">
          <mxGeometry x="30" width="210" height="30" as="geometry" />
        </mxCell>
        <mxCell id="mERQqLUmNKsXxVRj9tT_-207" value="" style="shape=partialRectangle;collapsible=0;dropTarget=0;pointerEvents=0;fillColor=none;top=0;left=0;bottom=0;right=0;points=[[0,0.5],[1,0.5]];portConstraint=eastwest;" vertex="1" parent="mERQqLUmNKsXxVRj9tT_-160">
          <mxGeometry y="450" width="240" height="30" as="geometry" />
        </mxCell>
        <mxCell id="mERQqLUmNKsXxVRj9tT_-208" value="" style="shape=partialRectangle;connectable=0;fillColor=none;top=0;left=0;bottom=0;right=0;editable=1;overflow=hidden;" vertex="1" parent="mERQqLUmNKsXxVRj9tT_-207">
          <mxGeometry width="30" height="30" as="geometry" />
        </mxCell>
        <mxCell id="mERQqLUmNKsXxVRj9tT_-209" value="lesse" style="shape=partialRectangle;connectable=0;fillColor=none;top=0;left=0;bottom=0;right=0;align=left;spacingLeft=6;overflow=hidden;" vertex="1" parent="mERQqLUmNKsXxVRj9tT_-207">
          <mxGeometry x="30" width="210" height="30" as="geometry" />
        </mxCell>
        <mxCell id="mERQqLUmNKsXxVRj9tT_-210" value="" style="shape=partialRectangle;collapsible=0;dropTarget=0;pointerEvents=0;fillColor=none;top=0;left=0;bottom=0;right=0;points=[[0,0.5],[1,0.5]];portConstraint=eastwest;" vertex="1" parent="mERQqLUmNKsXxVRj9tT_-160">
          <mxGeometry y="480" width="240" height="30" as="geometry" />
        </mxCell>
        <mxCell id="mERQqLUmNKsXxVRj9tT_-211" value="FK" style="shape=partialRectangle;connectable=0;fillColor=none;top=0;left=0;bottom=0;right=0;editable=1;overflow=hidden;" vertex="1" parent="mERQqLUmNKsXxVRj9tT_-210">
          <mxGeometry width="30" height="30" as="geometry" />
        </mxCell>
        <mxCell id="mERQqLUmNKsXxVRj9tT_-212" value="address_id" style="shape=partialRectangle;connectable=0;fillColor=none;top=0;left=0;bottom=0;right=0;align=left;spacingLeft=6;overflow=hidden;" vertex="1" parent="mERQqLUmNKsXxVRj9tT_-210">
          <mxGeometry x="30" width="210" height="30" as="geometry" />
        </mxCell>
        <mxCell id="mERQqLUmNKsXxVRj9tT_-176" style="rounded=0;orthogonalLoop=1;jettySize=auto;html=1;exitX=1;exitY=0.5;exitDx=0;exitDy=0;entryX=0;entryY=0.5;entryDx=0;entryDy=0;" edge="1" parent="1" source="mERQqLUmNKsXxVRj9tT_-154" target="mERQqLUmNKsXxVRj9tT_-161">
          <mxGeometry relative="1" as="geometry" />
        </mxCell>
        <mxCell id="mERQqLUmNKsXxVRj9tT_-214" style="rounded=0;orthogonalLoop=1;jettySize=auto;html=1;exitX=1;exitY=0.5;exitDx=0;exitDy=0;entryX=0;entryY=0.5;entryDx=0;entryDy=0;" edge="1" parent="1" source="mERQqLUmNKsXxVRj9tT_-60" target="mERQqLUmNKsXxVRj9tT_-100">
          <mxGeometry relative="1" as="geometry" />
        </mxCell>
        <mxCell id="mERQqLUmNKsXxVRj9tT_-215" style="edgeStyle=none;rounded=0;orthogonalLoop=1;jettySize=auto;html=1;exitX=1;exitY=0.5;exitDx=0;exitDy=0;entryX=0;entryY=0.5;entryDx=0;entryDy=0;" edge="1" parent="1" source="mERQqLUmNKsXxVRj9tT_-151" target="mERQqLUmNKsXxVRj9tT_-161">
          <mxGeometry relative="1" as="geometry" />
        </mxCell>
        <mxCell id="mERQqLUmNKsXxVRj9tT_-216" style="edgeStyle=none;rounded=0;orthogonalLoop=1;jettySize=auto;html=1;exitX=0;exitY=0.5;exitDx=0;exitDy=0;entryX=0;entryY=0.5;entryDx=0;entryDy=0;" edge="1" parent="1" source="mERQqLUmNKsXxVRj9tT_-210" target="mERQqLUmNKsXxVRj9tT_-100">
          <mxGeometry relative="1" as="geometry" />
        </mxCell>
        <mxCell id="mERQqLUmNKsXxVRj9tT_-217" style="edgeStyle=none;rounded=0;orthogonalLoop=1;jettySize=auto;html=1;exitX=1;exitY=0.5;exitDx=0;exitDy=0;entryX=0;entryY=0.5;entryDx=0;entryDy=0;" edge="1" parent="1" source="mERQqLUmNKsXxVRj9tT_-63" target="mERQqLUmNKsXxVRj9tT_-132">
          <mxGeometry relative="1" as="geometry" />
        </mxCell>
      </root>
    </mxGraphModel>
  </diagram>
</mxfile>
